<mxfile host="app.diagrams.net" agent="Mozilla/5.0 (Windows NT 10.0; Win64; x64) AppleWebKit/537.36 (KHTML, like Gecko) Chrome/132.0.0.0 Safari/537.36 OPR/117.0.0.0" version="26.2.3">
  <diagram name="Página-1" id="0i1bw6XhX4mlVpJeRA_x">
    <mxGraphModel dx="832" dy="478" grid="1" gridSize="10" guides="1" tooltips="1" connect="1" arrows="1" fold="1" page="1" pageScale="1" pageWidth="827" pageHeight="1169" math="0" shadow="0">
      <root>
        <mxCell id="0" />
        <mxCell id="1" parent="0" />
        <mxCell id="tArd6jo9zZRGyDokS9bD-3" value="" style="swimlane;startSize=0;" parent="1" vertex="1">
          <mxGeometry x="200" y="60" width="440" height="370" as="geometry" />
        </mxCell>
        <mxCell id="tArd6jo9zZRGyDokS9bD-14" value="" style="rounded=1;whiteSpace=wrap;html=1;" parent="tArd6jo9zZRGyDokS9bD-3" vertex="1">
          <mxGeometry x="40" y="40" width="120" height="60" as="geometry" />
        </mxCell>
        <mxCell id="tArd6jo9zZRGyDokS9bD-16" value="Averigua a situação de cada drone" style="text;html=1;align=center;verticalAlign=middle;whiteSpace=wrap;rounded=0;" parent="tArd6jo9zZRGyDokS9bD-3" vertex="1">
          <mxGeometry x="67" y="55" width="60" height="30" as="geometry" />
        </mxCell>
        <mxCell id="tArd6jo9zZRGyDokS9bD-17" value="" style="rounded=1;whiteSpace=wrap;html=1;" parent="tArd6jo9zZRGyDokS9bD-3" vertex="1">
          <mxGeometry x="37" y="240" width="120" height="60" as="geometry" />
        </mxCell>
        <mxCell id="tYMsyEJovsALyJ_lRooT-2" value="Aprimoramento&amp;nbsp; dos drones com uso de sensores" style="text;html=1;align=center;verticalAlign=middle;whiteSpace=wrap;rounded=0;" vertex="1" parent="tArd6jo9zZRGyDokS9bD-3">
          <mxGeometry x="70.5" y="257.5" width="53" height="25" as="geometry" />
        </mxCell>
        <mxCell id="tYMsyEJovsALyJ_lRooT-3" value="" style="rounded=1;whiteSpace=wrap;html=1;" vertex="1" parent="tArd6jo9zZRGyDokS9bD-3">
          <mxGeometry x="290" y="40" width="120" height="60" as="geometry" />
        </mxCell>
        <mxCell id="tYMsyEJovsALyJ_lRooT-4" value="" style="rounded=1;whiteSpace=wrap;html=1;" vertex="1" parent="tArd6jo9zZRGyDokS9bD-3">
          <mxGeometry x="290" y="240" width="120" height="60" as="geometry" />
        </mxCell>
        <mxCell id="tYMsyEJovsALyJ_lRooT-6" value="" style="rounded=1;whiteSpace=wrap;html=1;" vertex="1" parent="tArd6jo9zZRGyDokS9bD-3">
          <mxGeometry x="160" y="140" width="120" height="60" as="geometry" />
        </mxCell>
        <mxCell id="tYMsyEJovsALyJ_lRooT-10" value="Comunicação segura durante a operação" style="text;html=1;align=center;verticalAlign=middle;whiteSpace=wrap;rounded=0;" vertex="1" parent="tArd6jo9zZRGyDokS9bD-3">
          <mxGeometry x="320" y="55" width="60" height="30" as="geometry" />
        </mxCell>
        <mxCell id="tYMsyEJovsALyJ_lRooT-11" value="Criptografia de todas as logs de missões" style="text;html=1;align=center;verticalAlign=middle;whiteSpace=wrap;rounded=0;" vertex="1" parent="tArd6jo9zZRGyDokS9bD-3">
          <mxGeometry x="320" y="253" width="60" height="30" as="geometry" />
        </mxCell>
        <mxCell id="tYMsyEJovsALyJ_lRooT-12" value="Biometria e autenticações" style="text;html=1;align=center;verticalAlign=middle;whiteSpace=wrap;rounded=0;" vertex="1" parent="tArd6jo9zZRGyDokS9bD-3">
          <mxGeometry x="190" y="155" width="60" height="30" as="geometry" />
        </mxCell>
        <mxCell id="tArd6jo9zZRGyDokS9bD-5" value="Sistema de&lt;div&gt;navegação&lt;/div&gt;&lt;div&gt;inteligente&lt;/div&gt;" style="shape=umlActor;verticalLabelPosition=bottom;verticalAlign=top;html=1;outlineConnect=0;" parent="1" vertex="1">
          <mxGeometry x="120" y="300" width="30" height="60" as="geometry" />
        </mxCell>
        <mxCell id="tArd6jo9zZRGyDokS9bD-6" value="Gerenciamento de&lt;div&gt;navegação&lt;/div&gt;" style="shape=umlActor;verticalLabelPosition=bottom;verticalAlign=top;html=1;outlineConnect=0;" parent="1" vertex="1">
          <mxGeometry x="690" y="100" width="30" height="60" as="geometry" />
        </mxCell>
        <mxCell id="tArd6jo9zZRGyDokS9bD-7" value="Banco de dados&lt;div&gt;e auditoria&lt;/div&gt;" style="shape=umlActor;verticalLabelPosition=bottom;verticalAlign=top;html=1;outlineConnect=0;" parent="1" vertex="1">
          <mxGeometry x="700" y="300" width="30" height="60" as="geometry" />
        </mxCell>
        <mxCell id="tArd6jo9zZRGyDokS9bD-9" value="Central de&lt;div&gt;controle&lt;/div&gt;" style="shape=umlActor;verticalLabelPosition=bottom;verticalAlign=top;html=1;outlineConnect=0;" parent="1" vertex="1">
          <mxGeometry x="120" y="100" width="30" height="60" as="geometry" />
        </mxCell>
        <mxCell id="tArd6jo9zZRGyDokS9bD-12" value="Sistema embarcado&lt;div&gt;e segurança&lt;/div&gt;" style="shape=umlActor;verticalLabelPosition=bottom;verticalAlign=top;html=1;outlineConnect=0;" parent="1" vertex="1">
          <mxGeometry x="405" y="470" width="30" height="60" as="geometry" />
        </mxCell>
        <mxCell id="tArd6jo9zZRGyDokS9bD-13" value="&lt;font style=&quot;font-size: 14px;&quot;&gt;Aprimoramento de drones&lt;/font&gt;" style="text;html=1;align=center;verticalAlign=middle;whiteSpace=wrap;rounded=0;" parent="1" vertex="1">
          <mxGeometry x="267" y="20" width="306" height="30" as="geometry" />
        </mxCell>
        <mxCell id="tArd6jo9zZRGyDokS9bD-15" value="" style="endArrow=none;html=1;rounded=0;entryX=0;entryY=0.5;entryDx=0;entryDy=0;exitX=0.5;exitY=0.5;exitDx=0;exitDy=0;exitPerimeter=0;" parent="1" source="tArd6jo9zZRGyDokS9bD-9" target="tArd6jo9zZRGyDokS9bD-14" edge="1">
          <mxGeometry width="50" height="50" relative="1" as="geometry">
            <mxPoint x="170" y="160" as="sourcePoint" />
            <mxPoint x="220" y="110" as="targetPoint" />
          </mxGeometry>
        </mxCell>
        <mxCell id="tYMsyEJovsALyJ_lRooT-1" value="" style="endArrow=none;html=1;rounded=0;exitX=0.5;exitY=0.5;exitDx=0;exitDy=0;exitPerimeter=0;entryX=0;entryY=0.5;entryDx=0;entryDy=0;" edge="1" parent="1" source="tArd6jo9zZRGyDokS9bD-5" target="tArd6jo9zZRGyDokS9bD-17">
          <mxGeometry width="50" height="50" relative="1" as="geometry">
            <mxPoint x="390" y="230" as="sourcePoint" />
            <mxPoint x="440" y="180" as="targetPoint" />
            <Array as="points" />
          </mxGeometry>
        </mxCell>
        <mxCell id="tYMsyEJovsALyJ_lRooT-7" value="" style="endArrow=none;html=1;rounded=0;exitX=0.5;exitY=0.5;exitDx=0;exitDy=0;exitPerimeter=0;entryX=0.5;entryY=1;entryDx=0;entryDy=0;" edge="1" parent="1" source="tArd6jo9zZRGyDokS9bD-12" target="tYMsyEJovsALyJ_lRooT-6">
          <mxGeometry width="50" height="50" relative="1" as="geometry">
            <mxPoint x="400" y="370" as="sourcePoint" />
            <mxPoint x="450" y="320" as="targetPoint" />
          </mxGeometry>
        </mxCell>
        <mxCell id="tYMsyEJovsALyJ_lRooT-8" value="" style="endArrow=none;html=1;rounded=0;exitX=1;exitY=0.5;exitDx=0;exitDy=0;entryX=0.5;entryY=0.5;entryDx=0;entryDy=0;entryPerimeter=0;" edge="1" parent="1" source="tYMsyEJovsALyJ_lRooT-3" target="tArd6jo9zZRGyDokS9bD-6">
          <mxGeometry width="50" height="50" relative="1" as="geometry">
            <mxPoint x="630" y="160" as="sourcePoint" />
            <mxPoint x="680" y="110" as="targetPoint" />
          </mxGeometry>
        </mxCell>
        <mxCell id="tYMsyEJovsALyJ_lRooT-9" value="" style="endArrow=none;html=1;rounded=0;exitX=1;exitY=0.5;exitDx=0;exitDy=0;entryX=0.5;entryY=0.5;entryDx=0;entryDy=0;entryPerimeter=0;" edge="1" parent="1" source="tYMsyEJovsALyJ_lRooT-4" target="tArd6jo9zZRGyDokS9bD-7">
          <mxGeometry width="50" height="50" relative="1" as="geometry">
            <mxPoint x="640" y="350" as="sourcePoint" />
            <mxPoint x="690" y="300" as="targetPoint" />
          </mxGeometry>
        </mxCell>
      </root>
    </mxGraphModel>
  </diagram>
</mxfile>
